<svg viewBox="0 0 160 160" version="1.1" id="svg_null">
    <g id="root" stroke="none" stroke-width="1" fill="none" fill-rule="evenodd">
        <rect id="background.secondary" fill="#fbf27c" x="0" y="0" width="160" height="160"></rect>
        <rect id="icon.primary" x="70" y="59" width="20" height="20" display="none" fill="#586e72"></rect>
        <svg xmlns="http://www.w3.org/2000/svg" xmlns:xlink="http://www.w3.org/1999/xlink" viewBox="0 0 24 24"
             version="1.1" fill="#586e72" id="svg_icon.primary" x="70" y="59" width="20" height="20">
            <g id="surface1" fill="#586e72">
                <path style=" "
                      d="M 9.5 1 C 4.164063 1 0 6.015625 0 12 C 0 17.984375 4.164063 23 9.5 23 C 9.519531 23 9.542969 23 9.5625 23 C 21.902344 22.921875 22.097656 14.089844 22.59375 13.59375 C 23.195313 13.195313 23.8125 12.40625 23.8125 11.90625 C 23.8125 11.40625 23.492188 10.6875 22.59375 10.1875 C 22.09375 9.886719 21.09375 1 9.59375 1 C 9.5625 1 9.53125 1 9.5 1 Z M 9.5 3 C 13.554688 3 17 6.941406 17 12 C 17 17.058594 13.554688 21 9.5 21 C 5.445313 21 2 17.058594 2 12 C 2 6.941406 5.445313 3 9.5 3 Z M 9.15625 4.84375 C 8.367188 4.882813 7.605469 5.101563 6.90625 5.5 L 9.3125 10.3125 L 11.5 5.3125 C 10.75 4.960938 9.945313 4.804688 9.15625 4.84375 Z M 12.6875 6.1875 L 10.5 11.09375 L 15.09375 11 C 14.894531 9.101563 14.085938 7.289063 12.6875 6.1875 Z M 5.6875 6.3125 C 5.085938 6.914063 4.492188 7.699219 4.09375 8.5 C 3.695313 9.398438 3.507813 10.3125 3.40625 11.3125 L 8 11.1875 Z M 15.09375 12.59375 L 10.5 12.6875 L 12.90625 17.59375 C 13.507813 16.992188 14.007813 16.304688 14.40625 15.40625 C 14.804688 14.507813 14.992188 13.59375 15.09375 12.59375 Z M 8.09375 12.90625 L 3.5 13 C 3.699219 14.898438 4.507813 16.710938 5.90625 17.8125 Z M 9.3125 13.6875 L 7.09375 18.59375 C 8.59375 19.394531 10.289063 19.300781 11.6875 18.5 Z "
                      fill="#586e72"></path>
            </g>
        </svg>
        <g id="group" transform="translate(12.000000, 81.000000)">
            <rect id="Rectangle" x="0" y="2" width="136" height="18"></rect>
            <text id="headerText.primary" font-family="Lato" font-size="18" font-weight="700" letter-spacing=".81"
                  fill="#586e72" data-text-alignment="C" font-style="normal">
                <tspan x="14.953125" y="16">Guru Recipe</tspan>
            </text>
        </g>
        <path d="M92 75l36 0l0 2l-36 0l0 -2zm-60 0l36 0l0 2l-36 0l0 -2z" id="shape.primary" fill="#586e72"></path>
    </g>
</svg>